/* XPM */
static char *_627915005285[] = {
/* columns rows colors chars-per-pixel */
"32 32 2 1 ",
"  c black",
". c #760A0A",
/* pixels */
"                                ",
"...  ........    .... ....      ",
"..  ..........   ...  .....     ",
".   ..        .  ..      ...    ",
"    ..        .. ..       ...   ",
"    ..           ..        ..   ",
"  . ..           ..        ..   ",
" .  ..           ..        ..   ",
". . ..           ..        ..   ",
"... ..        .. ..        ..   ",
"... ............ .         ..   ",
"... .....  .....  .        ..   ",
"... ..        ..  .        ..   ",
" .. ..            .        ..   ",
"  . ..           ..        ..   ",
"  . ..           ..        ..   ",
". . ..           ..        ..   ",
". . ..           ..        ..   ",
"..  ..        .. ..       ...   ",
". . ..        .. ..      ....   ",
"... ...... ..... .......... .   ",
"..  .....  ..... .........      ",
"..    ...    ..   .. .. ..      ",
".      .      .    .  .         ",
"                                ",
"                                ",
"                                ",
"                                ",
"                                ",
"                                ",
"                                ",
"                                "
};
