/* XPM */
static char *_2843_bd98b542adb74b9b8656b656b2f686d8b5a21b67d65eb6d3ff36d52d0d8ff0bd[] = {
/* columns rows colors chars-per-pixel */
"32 32 8 1 ",
"  c black",
". c #222034",
"X c #45283C",
"o c #2D2D5B",
"O c #3F3F74",
"+ c #92527E",
"@ c #AD6496",
"# c #D77BBA",
/* pixels */
"                                ",
"                                ",
"                                ",
"                                ",
"                                ",
"               ....             ",
"             ..oOOo..           ",
"           ..oOOOOOOo..         ",
"          .oOOOOOOOOOOo.        ",
"         .oOO........OOo.       ",
"         .OO.+++@@+++.OO.       ",
"        .OO.+@######@+.OO.      ",
"        .O.+@########@+.O.      ",
"        .O.@##########@.O.      ",
"       ...@############@...     ",
"       .X@####X####X####@X.     ",
"       .X#####X####X#####X.     ",
"       .X#####X####X#####X.     ",
"        .#####X####X#####.      ",
"         .O############O.       ",
"          ..@########@..        ",
"            XX######XXo         ",
"            X+XXXXXX+Xo.        ",
"           .X+++XX++@XO.        ",
"           .X@@+XX@#@XO.        ",
"            .XXX.X###X.         ",
"                  XXXX          ",
"                                ",
"                                ",
"                                ",
"                                ",
"                                "
};
