/* XPM */
static char *bot_walk2[] = {
/* columns rows colors chars-per-pixel */
"32 32 8 1 ",
"  c black",
". c #222034",
"X c #45283C",
"o c #2D2D5B",
"O c #3F3F74",
"+ c #92527E",
"@ c #AD6496",
"# c #D77BBA",
/* pixels */
"                                ",
"                                ",
"                                ",
"                                ",
"              ....              ",
"            ..oOOo..            ",
"          ..oOOOOOOo..          ",
"         .oOOOOOOOOOOo.         ",
"        .oOO........OOo.        ",
"        .OO.+++@@+++.OO.        ",
"       .OO.+@######@+.OO.       ",
"       .O.+@########@+.O.       ",
"       .O.@##########@.O.       ",
"      ...@############@...      ",
"      .X@####X####X####@X.      ",
"      .X#####X####X#####X.      ",
"      .X#####X####X#####X.      ",
"       .#####X####X#####.       ",
"        .O############O.        ",
"         ..@########@..         ",
"          oXX######XXo          ",
"         .oX+XXXXXX+Xo.         ",
"         .oX+XXXXXX+XO.         ",
"         .OX@++XX++@XO.         ",
"         .OX@#@XX@#@XO.         ",
"          .X###XX###X.          ",
"           XXXX  XXXX           ",
"                                ",
"                                ",
"                                ",
"                                ",
"                                "
};
