/* XPM */
static char *_627572942096[] = {
/* columns rows colors chars-per-pixel */
"32 32 6 1 ",
"  c black",
". c #371701",
"X c #492106",
"o c #5B2D0E",
"O c #76421F",
"+ c #B6926D",
/* pixels */
"                                ",
"                                ",
"                                ",
"                                ",
"                                ",
"                                ",
"                                ",
"                                ",
"        ....................    ",
"       XXXXXXXXXXXXXXXXXXXX.    ",
"      OOoooooooOOOOOOOOOooX.    ",
"      XOOOOOOOOOOOOOOOOOOoX.    ",
"      XOOo++++++++++++OOOoX.    ",
"      oOOOo++++++++++OOoOOX.    ",
"      OOoOOo++++++++OOo+OOX.    ",
"      XOo+OOo++++++OOo++OOX.    ",
"      XOo++OOo++++OOo+++OoX.    ",
"      XOo+++OOo++OOo++++OoX.    ",
"      XOo++++OOOOOo+++++OoX.    ",
"      oOo+++++OOOOo+++++OoX.    ",
"      OOo+++++OOOOOo++++OoX.    ",
"      OOo++++OOo++OOo+++OOX.    ",
"      OOo+++OOo++++OOo++OOX.    ",
"      OOo++OOo++++++OOo+OOX.    ",
"      OOo+OOo++++++++OOoOOX.    ",
"      XOoOOo++++++++++OOOoX.    ",
"      oOOOoooooooooooooOOoX.    ",
"      OOOOOOOOOOOOOOOOOOOoX     ",
"      ooXXXOOOOOOoXXXXoOOo      ",
"                                ",
"                                ",
"                                "
};
