/* XPM */
static char *_627572961892[] = {
/* columns rows colors chars-per-pixel */
"32 32 8 1 ",
"  c black",
". c #121111",
"X c #1B1A1A",
"o c #492106",
"O c #5B2D0E",
"+ c #76421F",
"@ c #A4A1A1",
"# c #D1CECE",
/* pixels */
"                                ",
"                                ",
"                                ",
"                                ",
"                                ",
"                                ",
"                                ",
"                                ",
"                                ",
"                                ",
"                                ",
"                                ",
"                                ",
"                                ",
"                                ",
"    @                           ",
"   #@                           ",
"   #@                           ",
"   #@                           ",
" XX#@X                          ",
"  .@@X                          ",
"                                ",
"                      +o+       ",
"           O       XX+oX        ",
"        +   +O      ..@X        ",
"       X+oXX         +    O  @  ",
"        .@+X   o++     +O   #@  ",
"             XXo@X          #@  ",
"              +@@X          #@  ",
"                          XX#@X ",
"                           .@@X ",
"                                "
};
