/* XPM */
static char *_627570536692[] = {
/* columns rows colors chars-per-pixel */
"32 32 3 1 ",
"  c black",
". c #9B4810",
"X c #FBF236",
/* pixels */
"                                ",
"                                ",
"                                ",
"                                ",
"                                ",
"                                ",
"                                ",
"                                ",
"                                ",
"                                ",
"                                ",
"              .XXX              ",
"             .XXXXX             ",
"            .XXXXXXX            ",
"           .XXXXXXXXX           ",
"           .XXX..XXXX           ",
"           .XX.XX.XXX           ",
"           .XX.XXXXXX           ",
"           .XX.XXXXXX           ",
"           .XX.XX.XXX           ",
"           .XXX..XXXX           ",
"           .XXXXXXXXX           ",
"            XXXXXXXX            ",
"             XXXXXX             ",
"              XXXX              ",
"                                ",
"                                ",
"                                ",
"                                ",
"                                ",
"                                ",
"                                "
};
