/* XPM */
static char *_627993885183[] = {
/* columns rows colors chars-per-pixel */
"32 32 10 1 ",
"  c black",
". c #121111",
"X c #1B1A1A",
"o c #222034",
"O c #2D2D5B",
"+ c #3F3F74",
"@ c #AC3232",
"# c #D95763",
"$ c #A4A1A1",
"% c #D1CECE",
/* pixels */
"                                ",
"                                ",
"                                ",
"                                ",
"                                ",
"                                ",
"                                ",
"                                ",
"                                ",
"                                ",
"                                ",
"                                ",
"           ooooooooooo          ",
"          oOOOOOOOOOOOo         ",
"         oOOOO++++++OOOo        ",
"    $   oO++++++++++++OOo       ",
"   %$  oO++++OOOO++++++OOo      ",
"   %$  oO++OO+++++++O+++Ooo     ",
"   %$ oO++++++++++O++++++Oo     ",
" XX%$Xo+++++++++++OO++$++Oo     ",
"  .$$Xo++++++++++++++%$@+Oo     ",
"     o++++@++++++++++%#++Oo     ",
"     o+++#$+++++++++#@@O+Oo     ",
"     o++#%O+++++@+++@OOOOOo     ",
"     o++#%OO+++#$+++OO++oo      ",
"      o++++OO+#%$++++++o     $  ",
"       o++++++#%$+++ooo     %$  ",
"        ooooooo%$oo         %$  ",
"              .$$X          %$  ",
"                          XX%$X ",
"                           .$$X ",
"                                "
};
