/* XPM */
static char *_627993873303[] = {
/* columns rows colors chars-per-pixel */
"32 32 12 1 ",
"  c black",
". c #121111",
"X c #1B1A1A",
"o c #222034",
"O c #45283C",
"+ c #2D2D5B",
"@ c #3F3F74",
"# c #92527E",
"$ c #7D7DB6",
"% c #AD6496",
"& c #D77BBA",
"* c #A4A1A1",
/* pixels */
"                                ",
"                                ",
"                                ",
"                                ",
"                                ",
"                                ",
"                                ",
"             ooooooooo          ",
"            o+++++++++oo        ",
"           o+@@@@@@@@@@+o       ",
"          o+@@@@@@@@$$@@+o      ",
"         o+@@@@@@@@@@@$@@+o     ",
"        o+@@@@@@@@@@@@@$@@o     ",
"        o+@@@@@@@@@@@@@@@@o     ",
"       o+@@@@@@@@@@@@oooooo     ",
"       o+@@@@@@@@@@oo#####O     ",
"       o+@@@@@@@@@oo#%%%%%O     ",
"       o+@@@@@@@@oo#%&&&&&O     ",
"       oo@@@@@@@oo#%&&&OO&O     ",
" XXX*X  oo@@@@@@o#%&&&&&OOO     ",
"  .**X  ooo@@@@@o#%&&&&&&&O     ",
"       oo+oo++@@o#%&&&&&&&O     ",
"      oo+@@@++++oo%&&&&&&O      ",
"      o@@@@@@@@++oOOOOOOO       ",
"      o@@@@@@@@@@+o&###O        ",
"       o@@@@+@@@@@oo&OO         ",
"        oooooo@@@@@oOO          ",
"              oo*ooo            ",
"              .**X              ",
"                          XXX*X ",
"                           .**X ",
"                                "
};
