/* XPM */
static char *_627993905698[] = {
/* columns rows colors chars-per-pixel */
"32 32 27 1 ",
"  c black",
". c #121111",
"X c #1B1A1A",
"o c #222034",
"O c #510D0D",
"+ c #541010",
"@ c #52141C",
"# c #6F0C0E",
"$ c #760A0A",
"% c #640F13",
"& c #611015",
"* c #6D121A",
"= c #461722",
"- c #5B1728",
"; c #59182A",
": c #611E32",
"> c #601F34",
", c #5E2137",
"< c #2D2D5B",
"1 c #3F3F74",
"2 c #562846",
"3 c #AC3232",
"4 c #874242",
"5 c #985353",
"6 c #D95763",
"7 c #A4A1A1",
"8 c #D1CECE",
/* pixels */
"                                ",
"                                ",
"                                ",
"                                ",
"                                ",
"                                ",
"                                ",
"                                ",
"                                ",
"                                ",
"                                ",
"                                ",
"           ooooooooooo          ",
"          o<<<<<<<<<<<o         ",
"         o<<<<111111<<<o        ",
"    7   o<111111111111<<o       ",
"   87  o<1111<<<<111111<<o      ",
"   87  o<11<<1111111<111<oo     ",
"   87 o<1111111111<111111<o     ",
" XX87Xo11111111111<<11711<o     ",
"  .77Xo111111111111118731<o     ",
"     o1111311111111118611<o     ",
"     o11167111111111633-1<o     ",
"     o1165-:111131113---<<@     ",
"     o1168--11164111;<11&&$     ",
"     $&:1:,<<1657111:*:%$$$  7  ",
"    $$$%:,1,>1687112##%$$$$$87  ",
"   $$$$$=o#%#=o87o=$$$$$$   87  ",
"   $$$$$$$$$$$O77+$$$$$$$$  87  ",
"   $$$$  $$$$$$$ $$$$ $$$ XX87X ",
"     $  $$$$  $$  $  $$$$  .77X ",
"         $$           $$        "
};
