/* XPM */
static char *_627993910937[] = {
/* columns rows colors chars-per-pixel */
"32 32 26 1 ",
"  c black",
". c #121111",
"X c #1B1A1A",
"o c #222034",
"O c #57131A",
"+ c #52141C",
"@ c #690D0D",
"# c #6F0C0E",
"$ c #760A0A",
"% c #640F13",
"& c #611015",
"* c #6D121A",
"= c #461722",
"- c #5B1728",
"; c #59182A",
": c #611E32",
"> c #5E2137",
", c #2D2D5B",
"< c #3F3F74",
"1 c #562846",
"2 c #AC3232",
"3 c #874242",
"4 c #985353",
"5 c #D95763",
"6 c #A4A1A1",
"7 c #D1CECE",
/* pixels */
"                                ",
"                                ",
"                                ",
"                                ",
"                                ",
"                                ",
"                                ",
"                                ",
"                                ",
"                                ",
"                                ",
"                                ",
"           ooooooooooo          ",
"          o,,,,,,,,,,,o         ",
"         o,,,,<<<<<<,,,o        ",
"    6   o,<<<<<<<<<<<<,,o       ",
"   76  o,<<<<,,,,<<<<<<,,o      ",
"   76  o,<<,,<<<<<<<,<<<,oo     ",
"   76 o,<<<<<<<<<<,<<<<<<,o     ",
" XX76Xo<<<<<<<<<<<,,<<6<<,o     ",
"  .66Xo<<<<<<<<<<<<<<762<,o     ",
"     o<<<<2<<<<<<<<<<75<<,o     ",
"     o<<<53<<<<<<<<<522-<,o     ",
"     o<<54-:<<<<2<<<2---,,+     ",
"     o<<57--<<<53<<<;,<<&&$     ",
"     $&:<:>,,<546<<<:*:%$$$$ 6  ",
"    $$$%:><>*<576<<1##%$$$$$76  ",
"   $$$$$=o#%#=O76O=$$$$$$   76  ",
"   $$$$$$$$$$$@66@$$$$$$$$  76  ",
"  $$$$$  $$$$$$$$$$$$ $$$ XX76X ",
"     $  $$$$  $$ $$  $$$$$ .66X ",
"         $$  $$   $   $$        "
};
