/* XPM */
static char *_627993879902[] = {
/* columns rows colors chars-per-pixel */
"32 32 13 1 ",
"  c black",
". c #121111",
"X c #1B1A1A",
"o c #222034",
"O c #45283C",
"+ c #2D2D5B",
"@ c #3F3F74",
"# c #AC3232",
"$ c #D95763",
"% c #7D7DB6",
"& c #D77BBA",
"* c #A4A1A1",
"= c #D1CECE",
/* pixels */
"                                ",
"                                ",
"                                ",
"                                ",
"                                ",
"                                ",
"                                ",
"                                ",
"                                ",
"                ooooo           ",
"              oo+++++oo         ",
"            oo++@@@@@+ooo       ",
"           o++@@@@@@@@++oo      ",
"          o+@@@@@@@@@@%@+oo     ",
"         o+@@@@@@@@@@@@%@+o     ",
"        o+@@@@@@@@@@@@@@%+o     ",
"       o+@@@@@@@@@@@@@ooo+o     ",
"    *  o+@@@@@@@@@@@ooo&&oo     ",
"   =* ooo@@@@@@@@@@oo&&&&&o     ",
" XX=*Xooo+@@@@@@@@@o&&&&&&O     ",
"  .**o+++o++@@@@@@@@o&&O&&O     ",
"     o@@@@@++@@@@@@@@o*&O&O     ",
"     o@@@@@@+++@@@@@@=#O&OO     ",
"      o@@@*@@@@++@@@#+++OO      ",
"      o@@=++@@@@@@@@++@@o       ",
"       o@@@++@@@*@@@@@@o        ",
"        ooo@@@$=*@@@ooo         ",
"           oooo=*oo          *  ",
"              .**X          =*  ",
"                          XX=*X ",
"                           .**X ",
"                                "
};
