/* XPM */
static char *_627914406966[] = {
/* columns rows colors chars-per-pixel */
"96 32 2 1 ",
"  c black",
". c #760A0A",
/* pixels */
"                                                                                                ",
"    ..        ..    ......    ..        ..          ........    ...  ........    .... ....      ",
"    ..        ..   ........   ..        ..          .........   ..  ..........   ...  .....     ",
"    ..        ..  ...    ...  ..        ..          .      ...  .   ..        .  ..      ...    ",
"    ..        .. ...      ... ..        .                   ...     ..        .. ..       ...   ",
"    ..        .. ..        .. ..        .                    ..     ..           ..        ..   ",
"    ..        .. ..        .. ..                             ..   . ..           ..        ..   ",
"    ..        .. ..         . ..                   .         ..  .  ..           ..        ..   ",
"    ..        .. ..         . ..         .         .         .. . . ..           ..        ..   ",
"    ..        .. ..         . ..         .         .         .. ... ..        .. ..        ..   ",
"    ..        .. ..        .. ..        ..         ..        .. ... ............ .         ..   ",
"    ...      ...  .        .. ..        ..         ..        .. ... .....  .....  .        ..   ",
"    ...      ...           .. ..        ..         ..        .. ... ..        ..  .        ..   ",
"     ..      ..            .. ..        .          ..        ..  .. ..            .        ..   ",
"     ...    ...   .        .. ..                   ..        ..   . ..           ..        ..   ",
"     .........   ..        .. ..         .         ..        ..   . ..           ..        ..   ",
"     . ......    ..        .. ..        ..         ..        .. . . ..           ..        ..   ",
"     .   ..      ..        .. ..        ..         ..        .. . . ..           ..        ..   ",
"         ..      ...      ... ...      ...         ..       ... ..  ..        .. ..       ...   ",
"         ..       ...    ...   ...    ....         ..      ...  . . ..        .. ..      ....   ",
"         ..       .........     ..........         ..........   ... ...... ..... .......... .   ",
"         ..       . ......       ...... ..         .........    ..  .....  ..... .........      ",
"         ..            ..                .         ...   ..     ..    ...    ..   .. .. ..      ",
"          .             .                           .    .      .      .      .    .  .         ",
"                                                                                                ",
"                                                                                                ",
"                                                                                                ",
"                                                                                                ",
"                                                                                                ",
"                                                                                                ",
"                                                                                                ",
"                                                                                                "
};
