/* XPM */
static char *_627565248982[] = {
/* columns rows colors chars-per-pixel */
"32 32 11 1 ",
"  c black",
". c gray7",
"X c #1B1511",
"o c #1B1A1A",
"O c #37251A",
"+ c #37281F",
"@ c #49301F",
"# c #523523",
"$ c #5B3C26",
"% c #895430",
"& c #8F563B",
/* pixels */
"                                ",
"                                ",
"                                ",
"                                ",
"                                ",
"                                ",
"                                ",
"                                ",
"          %%        %%          ",
"          %%        %%          ",
"          %&        %&          ",
"          &&        &&          ",
"          &%        &%          ",
"          &&%%&&&&%%%%          ",
"          &%        %&          ",
"          &%        %&          ",
"          %%        %&          ",
"          %%        &&          ",
"          %%%%%&&&&&&%          ",
"       ooo%%oooooooo%%ooo       ",
"    oooooo$%........%$oooooo    ",
"    oooo..$$........$$..oooo    ",
"   oooo...@$........$@...oooo   ",
"   ooo....@##########@....ooo   ",
"   oo.....O#........#O.....oo   ",
"    o.....O+........+O.....o    ",
"    o.....X+........+X.....o    ",
"        ..X+........+X...       ",
"                                ",
"                                ",
"                                ",
"                                "
};
