/* XPM */
static char *_627572952809[] = {
/* columns rows colors chars-per-pixel */
"32 32 3 1 ",
"  c black",
". c #121111",
"X c #1B1A1A",
/* pixels */
"                                ",
"                                ",
"                                ",
"                                ",
"                                ",
"                                ",
"                                ",
"                                ",
"                                ",
"                                ",
"                                ",
"                                ",
"                                ",
"                                ",
"                                ",
"                                ",
"                                ",
"                                ",
"                                ",
" XXXXX                          ",
"  ...X                          ",
"                                ",
"                                ",
"                   XXXXX        ",
"                    ...X        ",
"       XXXXX                    ",
"        ...X                    ",
"             XXXXX              ",
"              ...X              ",
"                          XXXXX ",
"                           ...X ",
"                                "
};
