/* XPM */
static char *d77d0d9b54cb42e69d3d41b2341ac87fMI5p8Wn7pKSZzEaC[] = {
/* columns rows colors chars-per-pixel */
"32 32 9 1 ",
"  c black",
". c #222034",
"X c #45283C",
"o c #2D2D5B",
"O c #3F3F74",
"+ c #92527E",
"@ c #7D7DB6",
"# c #AD6496",
"$ c #D77BBA",
/* pixels */
"                                ",
"                                ",
"                                ",
"                                ",
"           ........             ",
"         ..OOOOOOOo..           ",
"        .oOOOOOOOOOOo..         ",
"       .oO.....OOOOOOOo.        ",
"      .oo.+++++.OO@OOOOo.       ",
"      .o.######+.OO@OOOo.       ",
"      ..##$$$###+.OO@OOOo.      ",
"      X##$$$$$$##+.OO@OOo.      ",
"      X$$$$$$$$$$#+.OOOOo.      ",
"      X$$$X$$X$$$$#+.OOOOo.     ",
"      X$$$X$$X$$$$$#.OOOOo.     ",
"      X$$$X$$X$$$$$#.OOOOO.     ",
"      X$$$X$$X$$$$$#.OOOOo.     ",
"      X$$$$$$$$$$$$.OOOOO.      ",
"       X$$$$$$$$$$$.oOOO.       ",
"        X$$$$$$$$$.ooo..        ",
"         XX$$$$$$X....oo.       ",
"           XXXXXXX+++XoO.       ",
"            X#+X####+XoOO.      ",
"            X#+X$$$$+XoOO.      ",
"            XX+XX$$$XXOOO.      ",
"             XXXXX$XX ...       ",
"             XX  XXX            ",
"                                ",
"                                ",
"                                ",
"                                ",
"                                "
};
