/* XPM */
static char *_fa3ed8eb0314f62f1640b69377c5155OpI5ZJNM2vEwZ3yJ[] = {
/* columns rows colors chars-per-pixel */
"32 32 9 1 ",
"  c black",
". c #222034",
"X c #45283C",
"o c #2D2D5B",
"O c #3F3F74",
"+ c #92527E",
"@ c #7D7DB6",
"# c #AD6496",
"$ c #D77BBA",
/* pixels */
"                                ",
"                                ",
"                                ",
"                                ",
"             ........           ",
"           ..oOOOOOOO..         ",
"         ..oOOOOOOOOOOo.        ",
"        .oOOOOOOO.....Oo.       ",
"       .oOOOO@OO.+++++.oo.      ",
"       .oOOO@OO.+######.o.      ",
"      .oOOO@OO.+###$$$##..      ",
"      .oOO@OO.+##$$$$$$##X      ",
"      .oOOOO.+#$$$$$$$$$$X      ",
"     .oOOOO.+#$$$$X$$X$$$X      ",
"     .oOOOO.#$$$$$X$$X$$$X      ",
"     .OOOOO.#$$$$$X$$X$$$X      ",
"     .oOOOO.#$$$$$X$$X$$$X      ",
"      .OOOOO.$$$$$$$$$$$$X      ",
"       .OOOo.$$$$$$$$$$$X       ",
"        ..ooo.$$$$$$$$$X        ",
"       .oo....X$$$$$$XX         ",
"       .OoX+++XXXXXXX           ",
"      .OOoX+####X+#X            ",
"      .OOoX+$$$$X+#X            ",
"      .OOOXX$$$XX+XX            ",
"       ... XX$XXXXX             ",
"            XXX  XX             ",
"                                ",
"                                ",
"                                ",
"                                ",
"                                "
};
