/* XPM */
static char *_627563480434[] = {
/* columns rows colors chars-per-pixel */
"32 32 8 1 ",
"  c black",
". c #142420",
"X c #242E2B",
"o c #323C39",
"O c #3A403E",
"+ c #595652",
"@ c #696A6A",
"# c #847E87",
/* pixels */
" +            +  +            + ",
" +@@@@@@@@@@@@+  +@@@@@@@@@@@@+ ",
" +@#+########@+  +@##+#######@+ ",
" +@#+########@+  +@##+#######@+ ",
" +@@+########@+  +@##++++++++@+ ",
" +@@+@@@@@@@@@+  +@@@@@@@@@@@@+ ",
" +@######++++@+  +@######+###@+ ",
" +@######+###@+  +@######+###@+ ",
" +@######+###@+  +@######+###@+ ",
" +@######+###@+  +@######+###@+ ",
" +@@@@@@@@@@@@+  +@@@@@@@@@@@@+ ",
" +@++++######@+  +@##++++++++@+ ",
" +@###+######@+  +@##+#######@+ ",
" +@###+######@+  +@##+#######@+ ",
" +@###+######@+  +@##+#######@+ ",
" +@@@@@@@++++@+  +@@@@@@@@@@@@+ ",
" .O..XXX..O.Xoo  X.XX..oXoo...X ",
" OX.X.O.X..XXo.  .XooXXXoXoXX.X ",
"                                ",
"                                ",
"                                ",
"                                ",
"                                ",
"                                ",
"                                ",
"                                ",
"                                ",
"                                ",
"                                ",
"                                ",
"                                ",
"                                "
};
