/* XPM */
static char *sidewall[] = {
/* columns rows colors chars-per-pixel */
"32 32 8 1 ",
"  c black",
". c #142420",
"X c #242E2B",
"o c #323C39",
"O c #3A403E",
"+ c #595652",
"@ c #696A6A",
"# c #847E87",
/* pixels */
"+@@@@@@@@@@@@@@@@@@@@@@@@@@@@@@+",
"+@##+####++++++######+########@+",
"+@##+#########+######+########@+",
"+@##+#########+######+########@+",
"+@##+#########+######+++++++++@+",
"+@@@@@@@@@@@@@@@@@@@@@@@@@@@@@@+",
"+@#######++++++++########+####@+",
"+@#######+######+########+####@+",
"+@#######+######+########+####@+",
"+@#######+######+########+####@+",
"+@@@@@@@@@@@@@@@@@@@@@@@@@@@@@@+",
"+++++++######+#######+++++++++@+",
"+@####+######+#######+########@+",
"+@####+######+#######+########@+",
"+@####+######+#######+########@+",
"+@@@@@@@@+++++@@@@@@@@@@@@@@@@@+",
"X.O..XXX..O.Xo..Xo.XX..oXoo...Xo",
"XOX.X.O.X..XXoXo.oXooXXXoXoXX.oX",
"                                ",
"                                ",
"                                ",
"                                ",
"                                ",
"                                ",
"                                ",
"                                ",
"                                ",
"                                ",
"                                ",
"                                ",
"                                ",
"                                "
};
