/* XPM */
static char *top_walk2[] = {
/* columns rows colors chars-per-pixel */
"32 32 5 1 ",
"  c black",
". c #222034",
"X c #45283C",
"o c #2D2D5B",
"O c #3F3F74",
/* pixels */
"                                ",
"                                ",
"                                ",
"                                ",
"              ....              ",
"            ..oOOo..            ",
"          ..oOOOOOOo..          ",
"         .oOOOOOOOOOOo.         ",
"        .oOOOOOOOOOOOOo.        ",
"        .oOOOOOOOOOOOOo.        ",
"       .oOOOOOOOOOOOOOOo.       ",
"       .oOOOOOOOOOOOOOOo.       ",
"       .oOOOOOOOOOOOOOOo.       ",
"      .oOOOOOOOOOOOOOOOOo.      ",
"      .oOOOOOOOOOOOOOOOOo.      ",
"      .OOOOOOOOOOOOOOOOOO.      ",
"      .oOOOOOOOOOOOOOOOOo.      ",
"       .OOOOOOOOOOOOOOOO.       ",
"        .OOOOOOOOOOOOOO.        ",
"         ..oOOOOOOOOo..         ",
"           ..OOOOOO..           ",
"          .oo......oo.          ",
"          .OooooooooO.          ",
"         .OOOOooooOOOO.         ",
"         .OOOOOOOOOOOO.         ",
"          ............          ",
"           XXXX  XXXX           ",
"                                ",
"                                ",
"                                ",
"                                ",
"                                "
};
