/* XPM */
static char *_627564807045[] = {
/* columns rows colors chars-per-pixel */
"32 32 3 1 ",
"  c #595652",
". c #696A6A",
"X c #847E87",
/* pixels */
"                                ",
"  .............  .............  ",
" .XXXXXXXXXXXXX  XXXXXXXXXXXXX. ",
" .XXXXXXXXXXXXX  XXXXXXXXXXXXX. ",
" .XXXXXXXXXXXXX  XXXXXXXXXXXXX. ",
" .XXX                      XXX. ",
" .XXX                      XXX. ",
" .XXX   .......  .......   XXX. ",
" .XXX  .XXXXX..  ..XXXXX.  XXX. ",
" .XXX  .XXXXXXX  XXXXXXX.  XXX. ",
" .XXX  .XXXXXXX  XXXXXXX.  XXX. ",
" .XXX  .XXXXXXX  XXXXXXX.  XXX. ",
" .XXX  .XXXXXXX  XXXXXXX.  XXX. ",
" .XXX  ..XXXXXX  XXXXXX..  XXX. ",
" .XXX  ..XXXXXX  XXXXXX..  XXX. ",
"                                ",
"                                ",
" .XXX  ..XXXXXX  XXXXXX..  XXX. ",
" .XXX  ..XXXXXX  XXXXXX..  XXX. ",
" .XXX  .XXXXXXX  XXXXXXX.  XXX. ",
" .XXX  .XXXXXXX  XXXXXXX.  XXX. ",
" .XXX  .XXXXXXX  XXXXXXX.  XXX. ",
" .XXX  .XXXXXXX  XXXXXXX.  XXX. ",
" .XXX  .XXXXX..  ..XXXXX.  XXX. ",
" .XXX   .......  .......   XXX. ",
" .XXX                      XXX. ",
" .XXX                      XXX. ",
" .XXXXXXXXXXXXX  XXXXXXXXXXXXX. ",
" .XXXXXXXXXXXXX  XXXXXXXXXXXXX. ",
" .XXXXXXXXXXXXX  XXXXXXXXXXXXX. ",
"  .............  .............  ",
"                                "
};
